<svg id="Layer_1" data-name="Layer 1" xmlns="http://www.w3.org/2000/svg" viewBox="0 0 985 320.94"><defs><style>.cls-1,.cls-3{fill:#ffe600;}.cls-1,.cls-4,.cls-5{fill-rule:evenodd;}.cls-2,.cls-4{fill:#00349a;}.cls-5{fill:#fff;}</style></defs><title>logo</title><path class="cls-1" d="M390.6,297.63q2.47,0,4.71-.11a32.6,32.6,0,0,0,3.59-.34V284.51q-1-.22-3-.45a33.56,33.56,0,0,0-3.7-.23,33,33,0,0,0-4.43.28,11.57,11.57,0,0,0-3.64,1.07,6.27,6.27,0,0,0-2.47,2.13,5.93,5.93,0,0,0-.9,3.36q0,3.92,2.64,5.44a14.56,14.56,0,0,0,7.23,1.51m106.51-26.15c1.65-1.78,3.35-3.65,5.1-5.57s3.46-3.85,5.08-5.74l4.65-5.4c1.46-1.72,2.71-3.2,3.76-4.47h19.87q-5.94,6.81-11.61,13c-3.77,4.15-7.9,8.41-12.39,12.82a75.07,75.07,0,0,1,7,7.25q3.59,4.21,7,8.69t6.17,9c1.87,3,3.44,5.74,4.71,8.21H517.14c-1.2-1.94-2.56-4.11-4.09-6.47s-3.14-4.71-4.86-7.08-3.53-4.62-5.44-6.8a44,44,0,0,0-5.64-5.5v25.85H480.4v-59h16.71v21.18Zm-51.54,25.81q4.6,0,6.5-.9a3.47,3.47,0,0,0,1.91-3.48q0-2-2.47-3.53A47,47,0,0,0,444,286a77,77,0,0,1-7.12-3,20.85,20.85,0,0,1-5.44-3.76A15.18,15.18,0,0,1,428,274a19.31,19.31,0,0,1-1.23-7.29,15.76,15.76,0,0,1,6.17-13.12q6.17-4.82,16.93-4.82a54.35,54.35,0,0,1,10.32,1,48.23,48.23,0,0,1,7.85,2.07l-2.92,13a61.24,61.24,0,0,0-6.34-1.8,34.56,34.56,0,0,0-7.68-.78q-7.85,0-7.85,4.37a4.52,4.52,0,0,0,.34,1.79,3.81,3.81,0,0,0,1.34,1.51,19,19,0,0,0,2.75,1.57,48.06,48.06,0,0,0,4.43,1.87,67.88,67.88,0,0,1,9.08,4,21.7,21.7,0,0,1,5.66,4.26,13.22,13.22,0,0,1,2.91,5.1,22.56,22.56,0,0,1,.84,6.48q0,8.72-6.56,13.21t-18.56,4.47a52.41,52.41,0,0,1-20.3-3.59L428,293.7a54.87,54.87,0,0,0,8.75,2.63A42.51,42.51,0,0,0,445.57,297.29ZM336.66,235.77v15.36h17.82l2.2,13.91h-20V285a16.52,16.52,0,0,0,1.85,8.41q1.85,3.14,7.46,3.14a32.05,32.05,0,0,0,5.55-.5,28.69,28.69,0,0,0,5.21-1.4l2.36,13a47.51,47.51,0,0,1-6.73,2.13,39.19,39.19,0,0,1-9.08.9A29.88,29.88,0,0,1,332,308.78a17.76,17.76,0,0,1-7.18-5.16,19.2,19.2,0,0,1-3.76-8A47.33,47.33,0,0,1,320,285.18V235.77ZM593,307.27a93.67,93.67,0,0,1-11,2.3,90.35,90.35,0,0,1-14.13,1.07,33.53,33.53,0,0,1-12.5-2,19,19,0,0,1-7.91-5.66,22.13,22.13,0,0,1-4.15-8.69,46.74,46.74,0,0,1-1.23-11.1V250.3h16.71v30.84q0,8.07,2.13,11.66t8,3.59q1.8,0,3.81-.17t3.59-.39V250.3H593ZM389.25,248.74a38.67,38.67,0,0,1,12.33,1.68,19.14,19.14,0,0,1,7.91,4.82,17.73,17.73,0,0,1,4.2,7.62,37.68,37.68,0,0,1,1.23,10v34.76q-3.59.78-10,1.85a95.71,95.71,0,0,1-15.47,1.07,49.06,49.06,0,0,1-10.37-1,22.5,22.5,0,0,1-8-3.31,15.14,15.14,0,0,1-5.16-6,20.7,20.7,0,0,1-1.8-9.08,17.22,17.22,0,0,1,2.08-8.75,16,16,0,0,1,5.55-5.72,25.1,25.1,0,0,1,8-3.08,44.63,44.63,0,0,1,9.31-1,52.61,52.61,0,0,1,5.78.28,25.48,25.48,0,0,1,4.09.73v-1.57a9.25,9.25,0,0,0-2.58-6.84q-2.58-2.58-9-2.58a57.11,57.11,0,0,0-8.41.62,36.08,36.08,0,0,0-7.18,1.74l-2.13-13.46q1.46-.45,3.64-1t4.77-.9q2.58-.39,5.44-.67T389.25,248.74Z" transform="translate(-8 -38.37)"/><path class="cls-2" d="M793.3,279.35q0,7.74,3.47,12.45t10.32,4.71q2.24,0,4.15-.17t3.14-.39V265.56a14.49,14.49,0,0,0-4.09-1.68,19.72,19.72,0,0,0-5.1-.67q-11.89,0-11.89,16.15m37.79,28q-2.24.67-5.16,1.29t-6.11,1.07q-3.2.45-6.51.73t-6.34.28a37.05,37.05,0,0,1-13-2.13,26.1,26.1,0,0,1-9.64-6.11,26.52,26.52,0,0,1-6-9.64,36.8,36.8,0,0,1-2.07-12.73,43.56,43.56,0,0,1,1.8-13,28.16,28.16,0,0,1,5.16-9.81,22.09,22.09,0,0,1,8.24-6.17,27.61,27.61,0,0,1,11.16-2.13,26.26,26.26,0,0,1,6.23.67,33.63,33.63,0,0,1,5.55,1.91V235.77h16.71Zm-64.93-27.7a38.34,38.34,0,0,1-2,12.73,27.66,27.66,0,0,1-5.83,9.87,26.26,26.26,0,0,1-9.14,6.33,30.5,30.5,0,0,1-11.94,2.24,30.19,30.19,0,0,1-11.83-2.24,26.22,26.22,0,0,1-9.14-6.33,29.06,29.06,0,0,1-5.94-9.87,36.56,36.56,0,0,1-2.13-12.73A35.22,35.22,0,0,1,710.38,267a28.74,28.74,0,0,1,6.05-9.76,27.21,27.21,0,0,1,9.2-6.28,29.59,29.59,0,0,1,11.61-2.24A29.89,29.89,0,0,1,749,251a26.63,26.63,0,0,1,9.14,6.28A28.53,28.53,0,0,1,764,267,36.08,36.08,0,0,1,766.17,279.68Zm-17,0q0-7.74-3.08-12.17a10.08,10.08,0,0,0-8.8-4.43,10.22,10.22,0,0,0-8.86,4.43q-3.14,4.43-3.14,12.17T728.38,292a10.15,10.15,0,0,0,8.86,4.54A10,10,0,0,0,746,292Q749.12,287.42,749.12,279.68Zm-75.29,17.94q2.47,0,4.71-.11a32.83,32.83,0,0,0,3.59-.34V284.51c-.67-.15-1.68-.3-3-.45a33.58,33.58,0,0,0-3.7-.23,33,33,0,0,0-4.43.28,11.57,11.57,0,0,0-3.64,1.07,6.26,6.26,0,0,0-2.47,2.13,5.93,5.93,0,0,0-.9,3.36q0,3.92,2.64,5.44A14.56,14.56,0,0,0,673.83,297.63Zm-1.35-48.89a38.67,38.67,0,0,1,12.34,1.68,19.14,19.14,0,0,1,7.91,4.82,17.74,17.74,0,0,1,4.2,7.63,37.66,37.66,0,0,1,1.23,10v34.76q-3.59.78-10,1.85a95.72,95.72,0,0,1-15.48,1.07,49.05,49.05,0,0,1-10.37-1,22.51,22.51,0,0,1-8-3.31,15.15,15.15,0,0,1-5.16-6,20.69,20.69,0,0,1-1.8-9.08,17.21,17.21,0,0,1,2.08-8.75,16,16,0,0,1,5.55-5.72,25.1,25.1,0,0,1,8-3.08,44.65,44.65,0,0,1,9.31-1,52.35,52.35,0,0,1,5.78.28,25.51,25.51,0,0,1,4.09.73v-1.57a9.24,9.24,0,0,0-2.58-6.84q-2.58-2.58-9-2.58a57.22,57.22,0,0,0-8.41.62A36.06,36.06,0,0,0,655,265l-2.13-13.46q1.46-.45,3.64-1t4.77-.9q2.58-.39,5.44-.67T672.49,248.74Zm169.9,39.61h20.83v20.83H842.39Zm134.49-14.28a17.28,17.28,0,0,0-.73-4.14,10.36,10.36,0,0,0-1.9-3.58,10.13,10.13,0,0,0-3.25-2.58,10.58,10.58,0,0,0-4.87-1,11.2,11.2,0,0,0-4.82,1,10,10,0,0,0-3.36,2.52,11.28,11.28,0,0,0-2.07,3.64,23.8,23.8,0,0,0-1.06,4.2Zm-65.41,0a17.19,17.19,0,0,0-.73-4.14,10.35,10.35,0,0,0-1.9-3.58,10.13,10.13,0,0,0-3.25-2.58,10.58,10.58,0,0,0-4.87-1,11.2,11.2,0,0,0-4.82,1,10,10,0,0,0-3.36,2.52,11.27,11.27,0,0,0-2.07,3.64,23.9,23.9,0,0,0-1.06,4.2Zm-39.2,6.38a36,36,0,0,1,2.41-13.72,29.42,29.42,0,0,1,6.33-9.8,26.33,26.33,0,0,1,9-5.94,28.24,28.24,0,0,1,10.47-2q12.54,0,19.82,7.67t7.28,22.57q0,1.46-.11,3.19t-.22,3.08H889.4a11.09,11.09,0,0,0,4.82,8.18q4.26,3,11.43,3a48.17,48.17,0,0,0,9-.84,34,34,0,0,0,7.22-2.07l2.24,13.55a23.07,23.07,0,0,1-3.58,1.34,46.91,46.91,0,0,1-5,1.18q-2.74.5-5.88.84a58.79,58.79,0,0,1-6.27.34,37.13,37.13,0,0,1-13.83-2.35,26.94,26.94,0,0,1-9.74-6.44,25.56,25.56,0,0,1-5.71-9.69A38.38,38.38,0,0,1,872.26,280.44Zm65.41,0a36,36,0,0,1,2.41-13.72,29.41,29.41,0,0,1,6.33-9.8,26.34,26.34,0,0,1,9-5.94,28.24,28.24,0,0,1,10.47-2q12.54,0,19.82,7.67T993,279.21q0,1.46-.11,3.19t-.22,3.08H954.81a11.09,11.09,0,0,0,4.82,8.18q4.26,3,11.42,3a48.18,48.18,0,0,0,9-.84,34,34,0,0,0,7.22-2.07l2.24,13.55a23.07,23.07,0,0,1-3.58,1.34,47,47,0,0,1-5,1.18q-2.74.5-5.88.84a58.76,58.76,0,0,1-6.27.34A37.13,37.13,0,0,1,955,308.67a27,27,0,0,1-9.74-6.44,25.57,25.57,0,0,1-5.71-9.69A38.37,38.37,0,0,1,937.67,280.44ZM619.89,235.77V285a16.52,16.52,0,0,0,1.85,8.41q1.85,3.14,7.46,3.14a32.06,32.06,0,0,0,5.55-.5,28.68,28.68,0,0,0,5.21-1.4l2.35,13a47.56,47.56,0,0,1-6.73,2.13,39.21,39.21,0,0,1-9.08.9,29.87,29.87,0,0,1-11.33-1.85,17.75,17.75,0,0,1-7.18-5.16,19.2,19.2,0,0,1-3.76-8,47.33,47.33,0,0,1-1.07-10.43V235.77Z" transform="translate(-8 -38.37)"/><path class="cls-2" d="M644.78,333.19h5.16v5.16h-5.16Zm-99,0h5.16v5.16h-5.16ZM327,334.51q5.4,0,8.28,1.92a6.68,6.68,0,0,1,2.87,6,6.75,6.75,0,0,1-1.16,4.11,7.65,7.65,0,0,1-3.34,2.48q.73.9,1.52,2.06t1.58,2.43q.78,1.26,1.51,2.63t1.35,2.68h-6l-1.34-2.39q-.68-1.21-1.39-2.35c-.47-.76-.95-1.48-1.41-2.17s-.93-1.3-1.39-1.85h-2.67v8.76H320V335.13a30.82,30.82,0,0,1,3.65-.49Q325.49,334.51,327,334.51Zm.31,4.61q-.59,0-1.06,0l-.88.07v6.51h1.52a9.2,9.2,0,0,0,4.36-.76,2.75,2.75,0,0,0,1.32-2.6,2.64,2.64,0,0,0-1.33-2.51A8.25,8.25,0,0,0,327.29,339.12Zm31.59,10.53a11.83,11.83,0,0,1-.62,3.93,8.54,8.54,0,0,1-1.8,3,8.1,8.1,0,0,1-2.82,2,10.07,10.07,0,0,1-7.34,0,8.12,8.12,0,0,1-2.82-2,9,9,0,0,1-1.84-3,11.28,11.28,0,0,1-.66-3.93,10.89,10.89,0,0,1,.68-3.91,8.89,8.89,0,0,1,1.87-3,8.4,8.4,0,0,1,2.84-1.94,9.13,9.13,0,0,1,3.58-.69,9.22,9.22,0,0,1,3.62.69,8.22,8.22,0,0,1,2.82,1.94,8.8,8.8,0,0,1,1.84,3A11.12,11.12,0,0,1,358.88,349.65Zm-5.26,0a6.48,6.48,0,0,0-1-3.76,3.11,3.11,0,0,0-2.72-1.37,3.16,3.16,0,0,0-2.74,1.37,6.4,6.4,0,0,0-1,3.76,6.57,6.57,0,0,0,1,3.79,3.13,3.13,0,0,0,2.74,1.4,3.09,3.09,0,0,0,2.72-1.4A6.65,6.65,0,0,0,353.62,349.65Zm9.25,9.14v-26l5.16-.83v8.73a10.72,10.72,0,0,1,1.33-.33,8.36,8.36,0,0,1,1.58-.16,9.74,9.74,0,0,1,3.69.61,5.73,5.73,0,0,1,2.35,1.71,6.63,6.63,0,0,1,1.25,2.63,14.68,14.68,0,0,1,.36,3.39v10.29h-5.16v-9.66a7.12,7.12,0,0,0-.64-3.53,2.56,2.56,0,0,0-2.37-1,6.65,6.65,0,0,0-1.3.12q-.61.12-1.09.26v13.85Zm25.56-11.68,1.58-1.72c.54-.59,1.07-1.19,1.57-1.77L393,342l1.16-1.38h6.14q-1.84,2.1-3.58,4t-3.83,4a23.2,23.2,0,0,1,2.15,2.24q1.11,1.3,2.15,2.68c.69.93,1.33,1.85,1.91,2.78s1.06,1.77,1.45,2.53h-5.94c-.37-.6-.79-1.27-1.26-2s-1-1.45-1.5-2.19-1.09-1.42-1.68-2.1a13.56,13.56,0,0,0-1.74-1.7v8h-5.16v-26l5.16-.83Zm12.78,2.71a11.15,11.15,0,0,1,.74-4.24,9.09,9.09,0,0,1,2-3,8.14,8.14,0,0,1,2.79-1.84,8.73,8.73,0,0,1,3.24-.62,8,8,0,0,1,6.13,2.37q2.25,2.37,2.25,7,0,.45,0,1c0,.36,0,.68-.07,1H406.51a3.43,3.43,0,0,0,1.49,2.53,6,6,0,0,0,3.53.93,14.94,14.94,0,0,0,2.79-.26,10.48,10.48,0,0,0,2.23-.64l.69,4.19a7.08,7.08,0,0,1-1.11.42,14.37,14.37,0,0,1-1.54.36q-.85.16-1.82.26a18.27,18.27,0,0,1-1.94.1,11.47,11.47,0,0,1-4.28-.73,8.33,8.33,0,0,1-3-2,7.9,7.9,0,0,1-1.77-3A11.86,11.86,0,0,1,401.21,349.82Zm12.12-2a5.33,5.33,0,0,0-.22-1.28,3.21,3.21,0,0,0-.59-1.11,3.14,3.14,0,0,0-1-.8,3.27,3.27,0,0,0-1.51-.31,3.47,3.47,0,0,0-1.49.29,3.08,3.08,0,0,0-1,.78,3.49,3.49,0,0,0-.64,1.13,7.33,7.33,0,0,0-.33,1.3Zm19,1.28a7.12,7.12,0,0,0-.64-3.53,2.38,2.38,0,0,0-2.2-1q-.48,0-1,.05l-1,.12v14.06H422.3v-17.6q.66-.17,1.54-.36t1.87-.35q1-.16,2-.24t2-.09a8.57,8.57,0,0,1,3.2.5,7.25,7.25,0,0,1,2,1.19,9.66,9.66,0,0,1,5.2-1.7,9.1,9.1,0,0,1,3.58.61,5.41,5.41,0,0,1,2.23,1.71,6.5,6.5,0,0,1,1.14,2.63,17,17,0,0,1,.31,3.39v10.29h-5.16v-9.66a7.12,7.12,0,0,0-.64-3.53,2.38,2.38,0,0,0-2.2-1,4.63,4.63,0,0,0-1.16.21,4.54,4.54,0,0,0-1.23.52,7.86,7.86,0,0,1,.31,1.68q.07.88.07,1.89v9.94h-5.16Zm118.6,9.66h-5.16V340.57h5.16Zm-25-9.66a7.12,7.12,0,0,0-.64-3.53,2.38,2.38,0,0,0-2.2-1q-.48,0-1,.05l-1,.12v14.06h-5.16v-17.6q.66-.17,1.54-.36t1.87-.35q1-.16,2-.24t2-.09a8.58,8.58,0,0,1,3.2.5,7.24,7.24,0,0,1,2,1.19,9.66,9.66,0,0,1,5.2-1.7,9.1,9.1,0,0,1,3.58.61,5.41,5.41,0,0,1,2.23,1.71,6.49,6.49,0,0,1,1.14,2.63,17,17,0,0,1,.31,3.39v10.29h-5.16v-9.66a7.12,7.12,0,0,0-.64-3.53,2.38,2.38,0,0,0-2.2-1,4.63,4.63,0,0,0-1.16.21,4.56,4.56,0,0,0-1.23.52A7.81,7.81,0,0,1,531,347q.07.88.07,1.89v9.94H525.9Zm-14.86,9a28.85,28.85,0,0,1-3.39.71,27.9,27.9,0,0,1-4.36.33,10.36,10.36,0,0,1-3.86-.62,5.87,5.87,0,0,1-2.44-1.75,6.84,6.84,0,0,1-1.28-2.68,14.43,14.43,0,0,1-.38-3.43V340.57h5.16v9.53a7.38,7.38,0,0,0,.66,3.6,2.62,2.62,0,0,0,2.46,1.11q.55,0,1.18-.05t1.11-.12V340.57H511Zm-20.4,0a28.86,28.86,0,0,1-3.39.71,27.92,27.92,0,0,1-4.36.33,10.36,10.36,0,0,1-3.86-.62,5.86,5.86,0,0,1-2.44-1.75,6.83,6.83,0,0,1-1.28-2.68,14.43,14.43,0,0,1-.38-3.43V340.57h5.16v9.53a7.37,7.37,0,0,0,.66,3.6,2.62,2.62,0,0,0,2.46,1.11q.55,0,1.18-.05t1.11-.12V340.57h5.16Zm-19.19-13q-.69-.17-1.63-.36a10,10,0,0,0-2-.19,9.31,9.31,0,0,0-1.16.09,7,7,0,0,0-1,.19v13.92h-5.16V341.54a31.1,31.1,0,0,1,3.27-.92,18.82,18.82,0,0,1,4.21-.43q.42,0,1,.05t1.18.14q.59.09,1.18.21a5.54,5.54,0,0,1,1,.3Zm91.75,4.68a11.15,11.15,0,0,1,.74-4.24,9.1,9.1,0,0,1,2-3,8.15,8.15,0,0,1,2.79-1.84,8.73,8.73,0,0,1,3.24-.62,8,8,0,0,1,6.13,2.37q2.25,2.37,2.25,7,0,.45,0,1c0,.36,0,.68-.07,1H568.51a3.43,3.43,0,0,0,1.49,2.53,6,6,0,0,0,3.53.93,15,15,0,0,0,2.79-.26,10.5,10.5,0,0,0,2.23-.64l.69,4.19a7.07,7.07,0,0,1-1.11.42,14.4,14.4,0,0,1-1.54.36q-.85.16-1.82.26a18.27,18.27,0,0,1-1.94.1,11.47,11.47,0,0,1-4.28-.73,8.32,8.32,0,0,1-3-2,7.91,7.91,0,0,1-1.77-3A11.88,11.88,0,0,1,563.21,349.82Zm12.12-2a5.27,5.27,0,0,0-.23-1.28,3.19,3.19,0,0,0-.59-1.11,3.14,3.14,0,0,0-1-.8,3.27,3.27,0,0,0-1.51-.31,3.47,3.47,0,0,0-1.49.29,3.08,3.08,0,0,0-1,.78,3.48,3.48,0,0,0-.64,1.13,7.4,7.4,0,0,0-.33,1.3Zm16.25,11.29a12.87,12.87,0,0,1-3.65-.49,5.4,5.4,0,0,1-2.22-1.26,4.19,4.19,0,0,1-1.11-2,10.64,10.64,0,0,1-.29-2.61V332.74l5.16-.83v19.85a6.75,6.75,0,0,0,.1,1.25,2.15,2.15,0,0,0,.4.94,2.11,2.11,0,0,0,.85.62,4.65,4.65,0,0,0,1.49.31Zm11.15-3.95q.76,0,1.46,0a10.41,10.41,0,0,0,1.11-.1v-3.91a9.41,9.41,0,0,0-.94-.14,10.41,10.41,0,0,0-1.14-.07,10.24,10.24,0,0,0-1.37.09,3.58,3.58,0,0,0-1.13.33,1.93,1.93,0,0,0-.76.66,1.83,1.83,0,0,0-.28,1,1.77,1.77,0,0,0,.81,1.68A4.5,4.5,0,0,0,602.73,355.19Zm-.42-15.1a12,12,0,0,1,3.81.52,5.9,5.9,0,0,1,2.44,1.49,5.48,5.48,0,0,1,1.3,2.35,11.61,11.61,0,0,1,.38,3.08v10.74q-1.11.24-3.08.57a29.64,29.64,0,0,1-4.78.33,15.2,15.2,0,0,1-3.2-.31,7,7,0,0,1-2.48-1,4.68,4.68,0,0,1-1.59-1.85,6.4,6.4,0,0,1-.55-2.8,5.31,5.31,0,0,1,.64-2.7,4.93,4.93,0,0,1,1.71-1.77,7.69,7.69,0,0,1,2.46-1,13.78,13.78,0,0,1,2.87-.3,16.25,16.25,0,0,1,1.78.09,7.93,7.93,0,0,1,1.26.22v-.48a2.86,2.86,0,0,0-.8-2.11,3.86,3.86,0,0,0-2.77-.8,17.71,17.71,0,0,0-2.6.19,11.07,11.07,0,0,0-2.22.54l-.66-4.16q.45-.14,1.13-.29t1.47-.28q.8-.12,1.68-.21T602.31,340.09Zm22.62,9a7.11,7.11,0,0,0-.64-3.53,2.38,2.38,0,0,0-2.2-1c-.32,0-.66,0-1,.05l-1,.12v14.06h-5.16v-17.6q.66-.17,1.54-.36t1.87-.35q1-.16,2-.24t2-.09a8.58,8.58,0,0,1,3.2.5,7.23,7.23,0,0,1,2,1.19,9.66,9.66,0,0,1,5.2-1.7,9.1,9.1,0,0,1,3.58.61,5.41,5.41,0,0,1,2.23,1.71,6.5,6.5,0,0,1,1.14,2.63,17,17,0,0,1,.31,3.39v10.29h-5.16v-9.66a7.12,7.12,0,0,0-.64-3.53,2.38,2.38,0,0,0-2.2-1,4.65,4.65,0,0,0-1.16.21,4.54,4.54,0,0,0-1.23.52A7.83,7.83,0,0,1,630,347q.07.88.07,1.89v9.94h-5.16Zm35.09,6a5.14,5.14,0,0,0,2-.28,1.07,1.07,0,0,0,.59-1.07,1.32,1.32,0,0,0-.76-1.09,14.55,14.55,0,0,0-2.32-1.06q-1.21-.45-2.2-.93a6.44,6.44,0,0,1-1.68-1.16,4.68,4.68,0,0,1-1.07-1.61,6,6,0,0,1-.38-2.25,4.87,4.87,0,0,1,1.9-4.05,8.28,8.28,0,0,1,5.23-1.49,16.83,16.83,0,0,1,3.19.29,14.87,14.87,0,0,1,2.42.64l-.9,4a19,19,0,0,0-2-.55,10.59,10.59,0,0,0-2.37-.24q-2.43,0-2.43,1.35a1.38,1.38,0,0,0,.1.55,1.18,1.18,0,0,0,.42.47,5.81,5.81,0,0,0,.85.48,14.74,14.74,0,0,0,1.37.58,21,21,0,0,1,2.81,1.24,6.74,6.74,0,0,1,1.75,1.32,4.08,4.08,0,0,1,.9,1.58,7,7,0,0,1,.26,2,4.63,4.63,0,0,1-2,4.08,10.14,10.14,0,0,1-5.73,1.38,16.16,16.16,0,0,1-6.27-1.11l.87-4.19a16.94,16.94,0,0,0,2.7.81A13.13,13.13,0,0,0,660,355.08Zm10.7-5.26a11.14,11.14,0,0,1,.74-4.24,9.1,9.1,0,0,1,2-3,8.14,8.14,0,0,1,2.79-1.84,8.74,8.74,0,0,1,3.24-.62,8,8,0,0,1,6.13,2.37q2.25,2.37,2.25,7,0,.45,0,1c0,.36,0,.68-.07,1H676a3.43,3.43,0,0,0,1.49,2.53,6,6,0,0,0,3.53.93,14.94,14.94,0,0,0,2.79-.26,10.49,10.49,0,0,0,2.23-.64l.69,4.19a7.1,7.1,0,0,1-1.11.42,14.4,14.4,0,0,1-1.54.36q-.85.16-1.82.26a18.27,18.27,0,0,1-1.94.1,11.47,11.47,0,0,1-4.28-.73,8.33,8.33,0,0,1-3-2,7.92,7.92,0,0,1-1.77-3A11.88,11.88,0,0,1,670.72,349.82Zm12.12-2a5.31,5.31,0,0,0-.22-1.28,3.21,3.21,0,0,0-.59-1.11,3.14,3.14,0,0,0-1-.8,3.27,3.27,0,0,0-1.51-.31,3.47,3.47,0,0,0-1.49.29,3.07,3.07,0,0,0-1,.78,3.5,3.5,0,0,0-.64,1.13,7.44,7.44,0,0,0-.33,1.3Zm14.13-.73,1.57-1.72c.54-.59,1.07-1.19,1.57-1.77l1.44-1.67,1.16-1.38h6.14q-1.84,2.1-3.58,4t-3.83,4a23.19,23.19,0,0,1,2.15,2.24q1.11,1.3,2.15,2.68c.69.93,1.33,1.85,1.9,2.78s1.06,1.77,1.45,2.53h-5.93c-.37-.6-.79-1.27-1.26-2s-1-1.45-1.5-2.19-1.09-1.42-1.68-2.1a13.62,13.62,0,0,0-1.74-1.7v8h-5.16v-26l5.16-.83Zm20.12,8a5.14,5.14,0,0,0,2-.28,1.07,1.07,0,0,0,.59-1.07,1.32,1.32,0,0,0-.76-1.09,14.55,14.55,0,0,0-2.32-1.06q-1.21-.45-2.2-.93a6.44,6.44,0,0,1-1.68-1.16,4.69,4.69,0,0,1-1.07-1.61,6,6,0,0,1-.38-2.25,4.87,4.87,0,0,1,1.91-4.05,8.28,8.28,0,0,1,5.23-1.49,16.83,16.83,0,0,1,3.19.29A14.87,14.87,0,0,1,724,341l-.9,4a19,19,0,0,0-2-.55,10.6,10.6,0,0,0-2.37-.24q-2.43,0-2.43,1.35a1.41,1.41,0,0,0,.1.55,1.19,1.19,0,0,0,.42.47,5.84,5.84,0,0,0,.85.48,14.76,14.76,0,0,0,1.37.58,21,21,0,0,1,2.81,1.24,6.73,6.73,0,0,1,1.75,1.32,4.09,4.09,0,0,1,.9,1.58,7,7,0,0,1,.26,2,4.63,4.63,0,0,1-2,4.08,10.13,10.13,0,0,1-5.73,1.38,16.16,16.16,0,0,1-6.27-1.11l.87-4.19a16.94,16.94,0,0,0,2.7.81A13.14,13.14,0,0,0,717.1,355.08Zm-67.16,3.71h-5.16V340.57h5.16Z" transform="translate(-8 -38.37)"/><rect class="cls-3" y="47.85" width="273.1" height="273.1"/><path class="cls-4" d="M207.35,110.64h0m-72.51,16.24c-21.31,26.55-20.39,36.64-3.13,47.26a128.51,128.51,0,0,1-5.26,15.69h0c-3.17,7.9-7.15,15-11.76,20.05h0c-3.41,3.73-8,6.74-12.5,7.64h0a14.07,14.07,0,0,1-2.79.29,12.3,12.3,0,0,1-7.76-2.75h0c-2.73-2.1-5.33-5.44-8.17-9.1h0c-2-2.62-4.19-5.4-6.66-8.07h0c-6.3-6.74-13.72-12.44-22.13-15.28h0a34.55,34.55,0,0,0-23.41.23h0a16.86,16.86,0,0,0-3.79,1.86h0a8.27,8.27,0,0,0-2.17,2.14,5.51,5.51,0,0,0-1,3.09,5.83,5.83,0,0,0,.06.85v0a5.66,5.66,0,0,0,1,2.42,6.3,6.3,0,0,0,2,1.72h0a9.19,9.19,0,0,0,4.39,1h0a37.3,37.3,0,0,1,6.76.49h0a16.71,16.71,0,0,1,5.7,2.27h0a32.25,32.25,0,0,1,7.48,6.74c2.31,2.71,4.53,5.83,6.82,9.06a1.25,1.25,0,0,0,.13.22l.09.11.1.13h0c3,4.23,5.85,8.8,8.74,13.38,7.45,11.81,15,23.82,26.87,33.45h0c2.18,1.78,4.27,3.22,6.25,4.61h0c4,2.8,7.62,5.32,11,9.79h0a29,29,0,0,1,5.3,11.42h0a32.87,32.87,0,0,1,.72,7,41.62,41.62,0,0,1-.53,6.5h0a18.39,18.39,0,0,1-1.21,4.44,28.54,28.54,0,0,1-1.84,3.48h0c-.45.75-.9,1.55-1.23,2.12l0,0a12.76,12.76,0,0,0-1.72,6c0,.13,0,.26,0,.38h0a7.83,7.83,0,0,0,1.16,3.83h0a7.85,7.85,0,0,0,2.91,2.72h0a11.73,11.73,0,0,0,5.78,1.32l.9,0h0q2.35-.12,4.62-.12c14.5,0,26.76,3.59,39.15,7.23h0l3.06.87h0l.17,0,.08,0a21.82,21.82,0,0,0,4.56.53,14.67,14.67,0,0,0,2.61-.22h0a10.23,10.23,0,0,0,4.63-2.07l.42.06h0a17.41,17.41,0,0,0,2.13.13,15.49,15.49,0,0,0,5.7-1h0a10.45,10.45,0,0,0,3.44-2.19,7.78,7.78,0,0,0,2.06-3.38l0-.1,0-.12a4.94,4.94,0,0,0,.18-.85h0a4.9,4.9,0,0,0,.06-.73h0s0,0,0-.06,0-.3,0-.45a14.15,14.15,0,0,0-2.13-7,26.79,26.79,0,0,0-5.48-6.5h0a33.09,33.09,0,0,0-16.9-7.84h0a16.09,16.09,0,0,0-1.78-.15h0c-.78,0-1.56-.06-2.33-.06a91,91,0,0,0-15,1.67h0a108.57,108.57,0,0,1-10.82,1.46,83.41,83.41,0,0,1,7.44-9.06c.53-.58,1.07-1.19,2.29-2.56h0a43.86,43.86,0,0,0,5.9-8.4h0a39.18,39.18,0,0,0,2.86-6.9c1.89-.57,3.74-1.19,5.56-1.83h0c1.08-.39,2.14-.8,3.18-1.21.08.28.14.49.17.61a23.42,23.42,0,0,1,.28,3.42c0,.11,0,.21,0,.32v0a28.7,28.7,0,0,1-.36,4.16,11.69,11.69,0,0,1-.78,2.79,20.08,20.08,0,0,1-1.2,2.27h0c-.32.54-.64,1.11-.85,1.5h0a9.64,9.64,0,0,0-1.33,4.62c0,.12,0,.23,0,.35h0v0h0a6.43,6.43,0,0,0,.94,3.17l0,0a6.69,6.69,0,0,0,2.46,2.28h0a9.6,9.6,0,0,0,4.6,1h.61q1.6-.08,3.15-.08c9.81,0,18.17,2.45,26.65,4.94h0l2.13.61h0l.17,0,.08,0a16.4,16.4,0,0,0,3.37.39,10.47,10.47,0,0,0,2-.19h0a8.31,8.31,0,0,0,3.26-1.35,12.8,12.8,0,0,0,1.5.09,11.61,11.61,0,0,0,4.36-.82h0a8.34,8.34,0,0,0,2.77-1.77,6.49,6.49,0,0,0,1.69-2.79v0a6.34,6.34,0,0,0,.18-.92c0-.1,0-.19,0-.25s0-.16,0-.24v-.07c0-.14,0-.28,0-.43a10.8,10.8,0,0,0-1.6-5.34,19.41,19.41,0,0,0-4.06-4.81,23.73,23.73,0,0,0-12.26-5.68h0c-.37-.05-.82-.11-1.34-.13h0q-.83,0-1.66,0a62.77,62.77,0,0,0-10.53,1.19h0c-1.63.28-3.25.54-4.83.73,1.05-1.3,2.27-2.67,3.55-4.1.32-.34.63-.71,1.58-1.77h0a30,30,0,0,0,5.52-8.64h0a27.09,27.09,0,0,0,2-9.14h0c0-.43,0-.86,0-1.3a35.66,35.66,0,0,0-.21-3.72h0c-.11-1.07-.26-2.19-.46-3.32a72,72,0,0,0,13.36-25.23h0a103.78,103.78,0,0,0,4.17-30.29,12.68,12.68,0,0,0-.28-2.63,10.56,10.56,0,0,1-.24-2.23c0-.28,0-.59,0-.94h0l.88-12.85h0c0-.09,0-.18,0-.26a3.66,3.66,0,0,0-2-3.25h0l-16.78-9.12-1.16-.66-.05-.1a117,117,0,0,0-8-12.83h0c-2.41-3.44-5-6.91-7.79-10.49a83.57,83.57,0,0,1,11.72-3.36l.12,0a23.39,23.39,0,0,1,3.54-.3,14.09,14.09,0,0,1,2,.2A8,8,0,0,0,203,140h0a7.86,7.86,0,0,0,1.6.16,9.13,9.13,0,0,0,2-.24,11,11,0,0,0,2.35.27,9.6,9.6,0,0,0,1.81-.17h0a7.65,7.65,0,0,0,4.78-2.8h0a6.21,6.21,0,0,0,1.28-3.83c0-.07,0-.14,0-.21a7.69,7.69,0,0,0,1-1.17h0a7.36,7.36,0,0,0,1.15-3.37v0c0-.19,0-.38,0-.57a7.7,7.7,0,0,0-.51-2.74h0a7.2,7.2,0,0,0-.46-1,5.48,5.48,0,0,0,.34-1.87,6,6,0,0,0-.3-1.83l0-.06-.09-.23,0-.05h0l-.05-.16a7.6,7.6,0,0,0-2.35-3.17,8.11,8.11,0,0,0-3.34-1.51h0a9.82,9.82,0,0,0-2.13-.23,12.05,12.05,0,0,0-1.84.14c0-.21,0-.42,0-.63a9.1,9.1,0,0,0-.91-4.07h0a7.68,7.68,0,0,0-2-2.59,8,8,0,0,0-3.18-1.54h0a8.54,8.54,0,0,0-1.92-.21c-.28,0-.55,0-.83,0h0a7.09,7.09,0,0,0-2.76.81h0a5.52,5.52,0,0,0-1.54,1.29,4.84,4.84,0,0,0-.95,1.92h0a5.11,5.11,0,0,0-.14,1.23c0,.13,0,.25,0,.38v0a7.65,7.65,0,0,0,.43,1.7c.2.57.44,1.15.65,1.69s.29.78.42,1.11a1.8,1.8,0,0,0,.13.36,4,4,0,0,1,.28,1.25,1.08,1.08,0,0,1-.08.44,4.22,4.22,0,0,1-.32.58h0a14.63,14.63,0,0,0-1.4,2.82v0a9.48,9.48,0,0,0-.5,2.46h0v0h0c0,.06,0,.12,0,.18a15.42,15.42,0,0,1-2,.67c-1.19.32-2.64.63-4.21.92h0a118.63,118.63,0,0,1-16.23,1.56,162.19,162.19,0,0,1-11.85-17.23,96.54,96.54,0,0,1-8.66-18.26,32.39,32.39,0,0,0,8.34-4.87h0a30.51,30.51,0,0,0,8.92-12.2h0c.15-.35.35-.83.58-1.41s.46-1.24.67-1.85v0a27.47,27.47,0,0,0,1-3.73h0a15.16,15.16,0,0,0,.32-2.93,9.71,9.71,0,0,0-.09-1.32h0v0h0A7.17,7.17,0,0,0,168.69,60v0a6.57,6.57,0,0,0-4.4-2.14h-1.19c-.85,0-1.71,0-2.58.08h0a27.58,27.58,0,0,0-3.3.36h0a45.8,45.8,0,0,0-7,1.66h0c-2.16.68-4.22,1.47-6.23,2.26h0c-1.21.47-2.08.79-2.71,1a4.48,4.48,0,0,1-1.2.25.75.75,0,0,1-.33-.07,5.34,5.34,0,0,1-.64-.36,27.44,27.44,0,0,0-3.16-1.77h0a9.47,9.47,0,0,0-4.19-.88,15.8,15.8,0,0,0-2.78.27h0c-.72.13-1.45.3-2.18.5l.07-.84v0c.1-1.72.16-3.59.16-5.47,0-2.23-.08-4.48-.29-6.52h0a20.24,20.24,0,0,0-1.42-6.1,7.84,7.84,0,0,0-1.45-2.25,4.91,4.91,0,0,0-2.08-1.31h0l-.12,0-.19-.06c-.3-.07-.57-.09-.75-.12h-.3a3.8,3.8,0,0,0-1.26.21h0a7.94,7.94,0,0,0-3.52,2.84,22.75,22.75,0,0,0-2.86,5.15h0A45.63,45.63,0,0,0,111.2,51c-.66-1.13-1.33-2.21-2-3.17h0a18.33,18.33,0,0,0-3.31-3.77,8,8,0,0,0-1.85-1.15,5.14,5.14,0,0,0-2-.45,4.61,4.61,0,0,0-1.25.17h0A4.89,4.89,0,0,0,98,44.58h0a11,11,0,0,0-1.62,4.25,31.6,31.6,0,0,0-.53,6.06q0,.44,0,.89h0a60.69,60.69,0,0,0,2.28,15.27h0c1.76,6.09,4.57,11.93,8.91,15.8a37.08,37.08,0,0,0,2.05,9.43h0a20.34,20.34,0,0,0,5.23,8.4h0a15.18,15.18,0,0,0,4.34,2.68,32.73,32.73,0,0,0,4.32,1.34h0a18,18,0,0,1,6.38,2.74,9.87,9.87,0,0,1,3.5,5h0a49.41,49.41,0,0,1,1.94,10.24Z" transform="translate(-8 -38.37)"/><path class="cls-5" d="M150,94.91l-.27.07c-5.24,1.35-14-.25-18.08-3.6a.47.47,0,0,1-.17-.19.3.3,0,0,1,.37-.41c4.49,2,10.16,4,17.49,2Zm13.88,104.81c1.81.52,4.13,1.17,5.71,1.55,3.26.79,6.31,1.4,9.14,1.84l.84-11.57-14.5-7.79Zm17.72-11.25,30.15-12.07-16.07-8.65L187.5,171a5.85,5.85,0,0,1-.67,2.94,9.13,9.13,0,0,1,1,3.75,4.74,4.74,0,0,1-2.2,4.38h0a3.54,3.54,0,0,1-2.35.51,3.59,3.59,0,0,1-1.29-.45,4.64,4.64,0,0,1-2.68.77,5.92,5.92,0,0,1-3.61-1.51,12.27,12.27,0,0,1-1.55-1.54,11.44,11.44,0,0,1-.87-1.19c-.72-.2-1.43-.4-2.12-.62l-.67-.22-4.87,2Zm.79,15.13.36,0c8.09.88,14.27.31,18.86-1s9.84-4,11.21-8.85l1-14.27-30.57,12.24ZM194,206.41c5.83,23.7,1.32,47.87-27.18,64.64,30.75-12.47,46-37.94,46.58-72.17a17.64,17.64,0,0,1-5.58,4.36C204.88,204.81,200.19,206.15,194,206.41Zm3.71-94.5c3.37-.5,6.06,1.78,6.4,5.59a8.56,8.56,0,0,0,.32-1c.64-3-.28-5.69-3.13-6.38-1.5-.36-3.78,0-3.63,1.6A1.83,1.83,0,0,0,197.68,111.91Zm10.63,7.15c5.47,1.69,5.73,5,3.26,6.4a8,8,0,0,0,2-1,2.42,2.42,0,0,0,1-2.71C213.7,119.05,210.9,118.53,208.31,119.06Zm3.29,13.66a4,4,0,0,1-.56,3.53,3.89,3.89,0,0,0,1.64-1.22,2.67,2.67,0,0,0,.35-2.57A7.63,7.63,0,0,1,211.6,132.72Zm1-6.58c1.11,2.26.2,4-1.13,5.6a6.21,6.21,0,0,0,1.31-.21l.13,0a3.76,3.76,0,0,0,1.29-6.25l-.22.16A8.31,8.31,0,0,1,212.58,126.14Zm-33,162.3c5.08,3.49,17.09-.07,23.62,0,8.73.54,12,7.2,12.48,13.56,2.34-.24,4.25-1.38,4.46-3.06.62-4.94-7.54-12.38-15.72-12.82-7.75-.42-15.5,2.69-22.94,2.1h-.06A5.27,5.27,0,0,0,179.56,288.43Zm12-30c-1.31,9.43-6.17,19-11.75,28.64a12.54,12.54,0,0,1,1.84-.39c1.7-3.6,5-6.93,8.28-10.64a24.05,24.05,0,0,0,6.55-15.5,33.68,33.68,0,0,0-.39-6.43A54.93,54.93,0,0,1,191.58,258.39ZM137,308.32c15.29,6.64,39.46-13.9,49,19.73,2.88-.56,5.1-2.11,5.37-4.28.9-7.16-10.93-18-22.8-18.6C157.89,304.61,147.26,308.61,137,308.32ZM155,252.45c.82,32.32-17,34.79-20.57,53.71.35-.06.7-.1,1.05-.14,2.46-5.24,7.25-10.08,12-15.48,7-7.86,10-16.42,9.43-26.7A55.49,55.49,0,0,0,155,252.45ZM116.34,70.67c-2.64-4.78-6.91-16-12.83-16.67-1.6-.18-4-.23-3.77-2.92s1-4.65,2-4.93C105.81,45,114,64.57,116.34,70.67Zm3.22-21.08c1.29.52,2.48,4.75,3.65,9.83.41-7.35,0-17.2-2.81-17.37-.87-.06-2.09,1.4-3.27,3.74C116.08,47.83,118,48.95,119.55,49.59ZM118,70.8c5.47-1.46,7.69,5.11,11.68,5.66,6.12.84,3-3.89,29.8-8.26a7.3,7.3,0,0,1-1.75-6.28h0a59,59,0,0,0-12.42,3.71c-6.12,2.38-5.88,1.83-9,0a1.66,1.66,0,1,1-1.32-.74l-.67-.34c-1.66-.81-4.18-.54-6.85.21a48.78,48.78,0,0,0-9.85,4.54Zm11.45-.09a2,2,0,1,0,2.82.36A2,2,0,0,0,129.45,70.7ZM33.84,192.38c-.68-4.32,5.14-5.39,11-5.27,10.51.21,17.53,3.62,25,9.08-10.32-9.36-23.12-15-37.35-9.89-1.54.56-4.77,2-4.46,3.95.2,1.29,1.74,2.1,3.78,2.11ZM134,66.53a.32.32,0,1,0,.46.06A.32.32,0,0,0,134,66.53Zm-4.46,5.76a.39.39,0,1,0,.55.07A.39.39,0,0,0,129.53,72.28Zm31.17-9.65c-3.29,2.45,1.86,5.3.62,2.81C160.61,64,162.21,61.51,160.7,62.64ZM185,171a5.19,5.19,0,0,0-1.07-2.63,11.06,11.06,0,0,0-2.79-2.58A18.24,18.24,0,0,0,170,162.86a14.06,14.06,0,0,0-2.35.39h0a17.63,17.63,0,0,0-8.19,4.7,10.25,10.25,0,0,0-3.24,7.8,8.39,8.39,0,0,0,.23,1.42v0a3.42,3.42,0,0,0,.51,1.17,2,2,0,0,0,1.31.8,5.45,5.45,0,0,0,2.29-.16,24.62,24.62,0,0,0,7.64-4,1.22,1.22,0,0,1,1.19-.14h0c.78.33,1.6.62,2.44.89s1.67.5,2.49.72a1.22,1.22,0,0,1,.78.63,9.28,9.28,0,0,0,.87,1.22,9.64,9.64,0,0,0,1.24,1.23,3.54,3.54,0,0,0,2.11.94,2.46,2.46,0,0,0,1.69-.69c1-1.44-.08-3.78-1.13-5.1a14,14,0,0,0-5.45-3.86,19.86,19.86,0,0,0-2.76-.94.61.61,0,0,1,.31-1.18,21.17,21.17,0,0,1,2.94,1,15.18,15.18,0,0,1,5.93,4.23,7.38,7.38,0,0,1,1.92,5.2c-.05.61.12,1,.8,1.05a1.17,1.17,0,0,0,.76-.19,2.41,2.41,0,0,0,1-2.26c-.05-3.16-3.43-7.26-5.6-8.75a17.22,17.22,0,0,0-6.73-2.65.61.61,0,1,1,.22-1.2,18.44,18.44,0,0,1,7.2,2.85,15.37,15.37,0,0,1,4.16,4.12C185.07,172.84,185.06,171.2,185,171ZM129,92.22a5.44,5.44,0,0,1-.26-2.54,2.38,2.38,0,0,1,.47-1.13,1.4,1.4,0,0,1,1.09-.53,2.86,2.86,0,0,1,1.44.44.32.32,0,0,1-.24.59,1.29,1.29,0,0,0-.3,0,1,1,0,0,0-.79.41,3.12,3.12,0,0,0-.54,1.14,6.46,6.46,0,0,0-.23,1.57.32.32,0,0,1-.62.1Z" transform="translate(-8 -38.37)"/></svg>