<?xml version="1.0" encoding="iso-8859-1"?>
<!-- Generator: Adobe Illustrator 19.0.0, SVG Export Plug-In . SVG Version: 6.00 Build 0)  -->
<svg version="1.1" id="Capa_1" xmlns="http://www.w3.org/2000/svg" xmlns:xlink="http://www.w3.org/1999/xlink" x="0px" y="0px"
	 viewBox="0 0 482 482" width="100px" height="100px" style="enable-background:new 0 0 482 482;" xml:space="preserve">
<g>
	<g>
		<path fill="#4b907b" d="M440.7,147.05H41.3c-22.8,0-41.3,18.5-41.3,41.3v210.3c0,22.8,18.5,41.3,41.3,41.3h399.3c22.8,0,41.3-18.5,41.3-41.3
			v-210.3h0.1C482,165.55,463.5,147.05,440.7,147.05z M20,188.05c0-11.8,9.8-21,21.5-21H93v9.7c0,33-27,59.3-60,59.3H20V188.05z
			 M93,420.05H41.5c-11.8-0.1-21.4-9.7-21.5-21.6v-48.4h13c33,0,60,27.3,60,60.3V420.05z M462,398.45c-0.1,11.9-9.7,21.5-21.5,21.6
			H389v-9.7c0-33,27-60.3,60-60.3h13V398.45z M462,330.05h-13c-44,0-80,36.3-80,80.3v9.7H113v-9.7c0-44-36-80.3-80-80.3H20v-74h13
			c44,0,80-35.3,80-79.3v-9.7h256v9.1c0,44,36,79.9,80,79.9h13V330.05z M462,236.05h-13c-33.1,0-59.9-26.8-60-59.9v-9.1h51.5
			c11.7,0,21.5,9.2,21.5,21V236.05z"/>
	</g>
</g>
<g>
	<g>
		<path fill="#4b907b" d="M241,182.35c-61.3,0-110.9,49.7-110.9,110.9s49.6,111,110.9,111s110.9-49.7,110.9-110.9
			C351.9,232.05,302.2,182.35,241,182.35z M241,384.25c-50.2,0-90.9-40.7-90.9-90.9s40.7-90.9,90.9-90.9s90.9,40.7,90.9,90.9
			C331.9,343.45,291.2,384.15,241,384.25z"/>
	</g>
</g>
<g>
	<g>
		<path fill="#4b907b" d="M419.6,94.05H62.4c-5.5,0-10,4.5-10,10s4.5,10,10,10h357.2c5.5,0,10-4.5,10-10S425.1,94.05,419.6,94.05z"/>
	</g>
</g>
<g>
	<g>
		<path fill="#4b907b" d="M367.3,42.05H114.6c-5.5,0-10,4.5-10,10s4.5,10,10,10h252.7c5.5,0,10-4.5,10-10S372.8,42.05,367.3,42.05z"/>
	</g>
</g>
<g>
	<g>
		<path fill="#4b907b" d="M265.9,334.15c-16.2,6.3-34.5,2.4-46.8-9.9c-1.7-1.6-3.2-3.4-4.5-5.3h47.2c5.5,0,10-4.5,10-10s-4.5-10-10-10h-55.1
			c-0.3-2-0.4-4-0.4-6h55.5c5.5,0,10-4.5,10-10s-4.5-10-10-10h-50.5c2-3.9,4.6-7.6,7.8-10.7c12.3-12.2,30.7-16.1,46.9-9.9
			c5.1,2,10.9-0.5,13-5.6c2-5.1-0.5-10.9-5.6-13c-0.1,0-0.1,0-0.2-0.1c-23.6-9.1-50.3-3.4-68.1,14.5c-6.9,7-12.1,15.5-15.3,24.8
			h-6.2c-5.5,0-10,4.5-10,10s4.5,10,10,10h2.8c0,2,0.1,4,0.2,6h-3.1c-5.5,0-10,4.5-10,10s4.5,10,10,10h8.2
			c3.2,7.2,7.7,13.8,13.3,19.4c17.9,17.8,44.6,23.5,68.1,14.4c5.2-2,7.7-7.8,5.7-12.9S271,332.15,265.9,334.15z"/>
	</g>
</g>
<g>
</g>
<g>
</g>
<g>
</g>
<g>
</g>
<g>
</g>
<g>
</g>
<g>
</g>
<g>
</g>
<g>
</g>
<g>
</g>
<g>
</g>
<g>
</g>
<g>
</g>
<g>
</g>
<g>
</g>
</svg>
