<?xml version="1.0" encoding="iso-8859-1"?>
<!-- Generator: Adobe Illustrator 19.0.0, SVG Export Plug-In . SVG Version: 6.00 Build 0)  -->
<svg version="1.1" width="50px" height="50px" id="Capa_1" xmlns="http://www.w3.org/2000/svg" xmlns:xlink="http://www.w3.org/1999/xlink" x="0px" y="0px"
	 viewBox="0 0 431.7 431.7" style="enable-background:new 0 0 431.7 431.7;" xml:space="preserve">
<g>
	<g>
		<path fill="#c7ddda" d="M258,265.55c-2-5.1-7.8-7.7-12.9-5.7c-17.4,6.8-37.2,2.6-50.5-10.5c-0.9-0.8-1.7-1.7-2.5-2.6h44.7c5.5,0,10-4.5,10-10
			s-4.5-10-10-10H182c-0.8-3.6-1.2-7.3-1.2-11H242c5.5,0,10-4.5,10-10s-4.5-10-10-10h-56.6c2.3-4.9,5.4-9.4,9.2-13.3
			c13-13.1,32.8-17.3,50.3-10.6c5.2,2,11-0.6,13-5.8s-0.6-11-5.8-13c-24.9-9.5-53-3.5-71.8,15.3c-7.8,7.6-13.4,17-16.5,27.4h-10
			c-5.5,0-10,4.5-10,10s4.5,10,10,10h6.9c0,3.7,0.3,7.4,0.9,11h-7.7c-5.5,0-10,4.5-10,10s4.5,10,10,10h14.3
			c3.2,6.2,7.4,11.8,12.3,16.7c18.9,18.8,47,24.7,71.8,15C257.5,276.45,260,270.65,258,265.55z"/>
	</g>
</g>
<g>
	<g>
		<path fill="#c7ddda" d="M429.9,232.15l-46-67c-1.9-2.7-4.9-4.3-8.2-4.3s-6.4,1.6-8.2,4.3l-46.1,66.9c-3.1,4.6-2,10.8,2.6,14
			c1.7,1.1,3.6,1.8,5.6,1.8h33.5c-6.4,34-24.7,64.2-52.4,86.7s-62.3,35.4-95.2,35.4c-44.4,0-91.5-23.9-120-60.9
			c-3.3-4.4-9.5-5.4-14-2.1c-4.4,3.3-5.4,9.5-2.1,14c0.1,0.1,0.2,0.2,0.3,0.3c32.7,42.4,84.7,68.7,135.8,68.7
			c37.4,0,76.7-14.5,107.8-39.9c32.3-26.3,53.4-62.2,60-102.2h38.4c5.6,0,10-4.6,10-10.1C431.7,235.75,431.1,233.75,429.9,232.15z
			 M348.6,227.85l27.1-39.3l27.1,39.3H348.6z"/>
	</g>
</g>
<g>
	<g>
		<path fill="#c7ddda" d="M352.4,110.75c-0.1-0.1-0.2-0.2-0.3-0.3c-32.7-42.4-84.7-68.7-135.8-68.7c-37.4,0-76.7,14.5-107.8,39.9
			c-32.4,26.3-53.5,62.2-60.1,102.2H10c-5.6,0-10,4.6-10,10.1c0,2,0.6,4,1.8,5.6l46.2,66.9c1.9,2.7,4.9,4.3,8.2,4.3
			c3.3,0,6.4-1.6,8.2-4.3l46.1-66.9c2.1-3,2.3-7,0.6-10.3c-1.7-3.3-5.1-5.4-8.9-5.4H68.7c6.4-34,24.7-64.2,52.4-86.7
			c27.7-22.5,62.3-35.4,95.2-35.4c44.4,0,91.5,23.9,120,60.9c3.3,4.4,9.5,5.4,14,2.1C354.7,121.45,355.7,115.25,352.4,110.75z
			 M83.2,203.85l-27.1,39.3L29,203.85H83.2z"/>
	</g>
</g>
<g>
</g>
<g>
</g>
<g>
</g>
<g>
</g>
<g>
</g>
<g>
</g>
<g>
</g>
<g>
</g>
<g>
</g>
<g>
</g>
<g>
</g>
<g>
</g>
<g>
</g>
<g>
</g>
<g>
</g>
</svg>
