<?xml version="1.0" encoding="utf-8"?>
<!-- Generator: Adobe Illustrator 21.0.0, SVG Export Plug-In . SVG Version: 6.00 Build 0)  -->
<svg version="1.1" id="Layer_1" xmlns="http://www.w3.org/2000/svg" xmlns:xlink="http://www.w3.org/1999/xlink" x="0px" y="0px"
	 viewBox="0 0 512 512" style="enable-background:new 0 0 512 512;" xml:space="preserve">
<style type="text/css">
	.st0{fill:#4b907b;}
	.st1{fill:#4b907b;}
	.st2{fill:#4b907b;}
	.st3{fill:#4b907b;}
	.st4{fill:#4b907b;}
	.st5{fill:#4b907b;}
	.st6{fill:none;}
</style>
<g>
	<g>
		<g>
			<g>
				<path class="st2" d="M83.441,312.609c-23.361,0-42.365,19.005-42.365,42.365c0,23.36,19.005,42.365,42.365,42.365
					c23.359,0,42.364-19.005,42.364-42.364S106.8,312.609,83.441,312.609z M83.441,390.803c-19.757,0-35.83-16.073-35.83-35.83
					c0-19.756,16.073-35.83,35.83-35.83c19.756,0.001,35.829,16.074,35.829,35.83S103.196,390.803,83.441,390.803z"/>
			</g>
		</g>
	</g>
	<g>
		<g>
			<path class="st3" d="M83.44,327.211c-15.309,0-27.763,12.454-27.763,27.762s12.454,27.762,27.763,27.762
				c15.307,0,27.761-12.454,27.761-27.762S98.748,327.211,83.44,327.211z"/>
		</g>
	</g>
	<g>
		<g>
			<g>
				<path class="st2" d="M145.214,31.146c-8.516-8.515-19.836-13.203-31.878-13.203C88.477,17.945,68.253,38.17,68.253,63.028
					c0,12.042,4.69,23.363,13.205,31.877s19.835,13.203,31.877,13.203c24.859-0.001,45.083-20.226,45.083-45.085
					C158.418,50.982,153.729,39.661,145.214,31.146z M113.335,101.573c-10.296,0.001-19.976-4.008-27.257-11.289
					s-11.29-16.96-11.29-27.256c0-21.255,17.292-38.548,38.547-38.549c10.296-0.001,19.977,4.008,27.257,11.289
					c7.281,7.28,11.291,16.96,11.291,27.256C151.883,84.279,134.591,101.572,113.335,101.573z"/>
			</g>
		</g>
	</g>
	<g>
		<g>
			<path class="st3" d="M135.201,41.159c-5.84-5.84-13.605-9.056-21.864-9.056c-17.052,0.001-30.924,13.874-30.924,30.925
				c0,8.26,3.217,16.025,9.057,21.865c5.84,5.84,13.606,9.056,21.865,9.055c17.052-0.001,30.923-13.874,30.923-30.925
				C144.258,54.764,141.042,46.999,135.201,41.159z"/>
		</g>
	</g>
	<g>
		<g>
			<path class="st2" d="M111.452,390.803H51.399c-27.594,0-50.044,22.45-50.044,50.045V512h6.535v-71.152
				c0-23.991,19.518-43.509,43.509-43.509h60.052c23.991,0,43.509,19.518,43.509,43.509V512h6.535v-71.152
				C161.496,413.253,139.046,390.803,111.452,390.803z"/>
		</g>
	</g>
	<g>
		<g>
			<path class="st1" d="M111.452,405.406H51.399c-19.543,0-35.442,15.899-35.442,35.442V512h130.936v-71.152
				C146.894,421.305,130.995,405.406,111.452,405.406z"/>
		</g>
	</g>
	<g>
		<g>
			<rect x="24.721" y="467.153" class="st2" width="6.535" height="44.847"/>
		</g>
	</g>
	<g>
		<g>
			<rect x="131.572" y="467.153" class="st2" width="6.535" height="44.847"/>
		</g>
	</g>
	<g>
		<g>
			<g>
				<path class="st2" d="M258.014,312.609c-23.361,0-42.365,19.005-42.365,42.365c0,23.36,19.005,42.365,42.365,42.365
					c23.36,0,42.364-19.005,42.364-42.364S281.375,312.609,258.014,312.609z M258.014,390.803c-19.757,0-35.83-16.073-35.83-35.83
					c0-19.756,16.073-35.83,35.83-35.83c19.757,0.001,35.829,16.074,35.829,35.83S277.771,390.803,258.014,390.803z"/>
			</g>
		</g>
	</g>
	<g>
		<g>
			<path class="st3" d="M258.014,327.211c-15.309,0-27.762,12.454-27.762,27.762s12.454,27.762,27.762,27.762
				c15.309,0,27.762-12.454,27.762-27.762S273.323,327.211,258.014,327.211z"/>
		</g>
	</g>
	<g>
		<g>
			<path class="st2" d="M286.025,390.803h-60.051c-27.594,0-50.044,22.45-50.044,50.045V512h6.535v-71.152
				c0-23.991,19.518-43.509,43.509-43.509h60.051c23.992,0,43.511,19.518,43.511,43.509V512h6.535v-71.152
				C336.071,413.253,313.621,390.803,286.025,390.803z"/>
		</g>
	</g>
	<g>
		<g>
			<path class="st1" d="M286.026,405.406h-60.052c-19.543,0-35.443,15.899-35.443,35.442V512h130.936v-71.152
				C321.467,421.305,305.567,405.406,286.026,405.406z"/>
		</g>
	</g>
	<g>
		<g>
			<rect x="199.296" y="467.153" class="st2" width="6.535" height="44.847"/>
		</g>
	</g>
	<g>
		<g>
			<rect x="306.146" y="467.153" class="st2" width="6.535" height="44.847"/>
		</g>
	</g>
	<g>
		<g>
			<g>
				<path class="st2" d="M432.587,312.609c-23.36,0-42.364,19.005-42.364,42.365c0,23.36,19.004,42.365,42.364,42.365
					c23.361,0,42.366-19.005,42.366-42.364S455.948,312.609,432.587,312.609z M432.587,390.803
					c-19.757,0-35.829-16.073-35.829-35.83c0-19.756,16.072-35.83,35.829-35.83c19.757,0.001,35.831,16.074,35.831,35.83
					S452.344,390.803,432.587,390.803z"/>
			</g>
		</g>
	</g>
	<g>
		<g>
			<path class="st3" d="M432.589,327.211c-15.309,0-27.764,12.454-27.764,27.762s12.455,27.762,27.764,27.762
				c15.309,0,27.762-12.454,27.762-27.762S447.897,327.211,432.589,327.211z"/>
		</g>
	</g>
	<g>
		<g>
			<path class="st2" d="M460.601,390.803h-60.053c-27.594,0-50.044,22.45-50.044,50.045V512h6.535v-71.152
				c0-23.991,19.518-43.509,43.509-43.509h60.053c23.99,0,43.509,19.518,43.509,43.509V512h6.535v-71.152
				C510.645,413.253,488.195,390.803,460.601,390.803z"/>
		</g>
	</g>
	<g>
		<g>
			<path class="st1" d="M460.601,405.406h-60.053c-19.542,0-35.442,15.899-35.442,35.442V512h130.936v-71.152
				C496.042,421.305,480.142,405.406,460.601,405.406z"/>
		</g>
	</g>
	<g>
		<g>
			<rect x="373.87" y="467.153" class="st2" width="6.535" height="44.847"/>
		</g>
	</g>
	<g>
		<g>
			<rect x="480.721" y="467.153" class="st2" width="6.535" height="44.847"/>
		</g>
	</g>
	<g>
		<g>
			<g>
				<path class="st2" d="M244.501,29.681v139.92h19.104c2.255,0,4.45,0.42,6.533,1.253c3.957,1.565,7.222,4.517,9.203,8.329
					c0.932,1.771,1.54,3.678,1.817,5.726c0.121,0.799,0.181,1.607,0.181,2.469c0,2.354-0.47,4.649-1.398,6.83
					c-1.723,4.077-4.88,7.344-8.886,9.2c-2.342,1.086-4.848,1.636-7.45,1.636h-19.104v28.167h250.975V29.681H244.501z
					 M488.941,226.676H251.036v-15.097h12.568c3.557,0,6.988-0.754,10.199-2.242c5.48-2.539,9.799-7.009,12.154-12.578
					c1.272-2.988,1.917-6.145,1.917-9.382c0-1.196-0.083-2.327-0.249-3.398c-0.37-2.751-1.21-5.388-2.493-7.824
					c-2.698-5.194-7.169-9.235-12.579-11.374c-2.846-1.138-5.857-1.715-8.948-1.715h-12.568V36.216h237.905V226.676z"/>
			</g>
		</g>
	</g>
	<g>
		<g>
			<path class="st4" d="M258.661,43.841v122.492h4.945c2.723,0,5.337,0.523,7.733,1.482V56.541h197.299v149.831h-196.21
				c-2.68,1.242-5.664,1.939-8.823,1.939h-4.945v10.74h222.656V43.841H258.661z"/>
		</g>
	</g>
	<g>
		<g>
			<g>
				<path class="st2" d="M268.072,53.273v116.763l2.066,0.817c3.957,1.565,7.222,4.517,9.203,8.329
					c0.932,1.771,1.54,3.678,1.817,5.726c0.121,0.799,0.181,1.607,0.181,2.469c0,2.354-0.47,4.649-1.398,6.83
					c-1.723,4.077-4.88,7.344-8.886,9.2l-13.453,6.233h214.304V53.273H268.072z M465.37,203.104H282.034
					c1.613-1.883,2.94-4.018,3.923-6.345c1.272-2.988,1.917-6.145,1.917-9.382c0-1.196-0.083-2.327-0.249-3.398
					c-0.37-2.751-1.21-5.388-2.493-7.824c-2.346-4.518-6.035-8.164-10.524-10.447V59.809H465.37V203.104z"/>
			</g>
		</g>
	</g>
	<g>
		<g>
			<path class="st1" d="M282.231,67.433v110.228c1.089,2.07,1.83,4.336,2.157,6.753c0.152,1.002,0.218,1.982,0.218,2.962
				c0,2.854-0.588,5.598-1.656,8.103h174.796V67.433H282.231z"/>
		</g>
	</g>
	<g>
		<g>
			<g>
				<path class="st2" d="M333.574,0v36.217h70.635V0H333.574z M397.673,29.682h-57.564V6.535h57.564V29.682z"/>
			</g>
		</g>
	</g>
	<g>
		<g>
			<rect x="347.734" y="14.16" class="st1" width="42.316" height="7.897"/>
		</g>
	</g>
	<g>
		<g>
			<polygon class="st2" points="297.462,226.682 276.286,281.365 282.379,283.725 301.938,233.217 340.711,233.217 322.771,281.405 
				328.894,283.685 350.118,226.682 			"/>
		</g>
	</g>
	<g>
		<g>
			<polygon class="st1" points="307.163,240.842 291.464,282.545 314.499,282.545 329.736,240.842 			"/>
		</g>
	</g>
	<g>
		<g>
			<polygon class="st2" points="436.676,226.682 384.02,226.682 405.247,283.685 411.369,281.405 393.427,233.217 432.2,233.217 
				451.759,283.725 457.852,281.365 			"/>
		</g>
	</g>
	<g>
		<g>
			<polygon class="st1" points="426.976,240.842 404.403,240.842 420.248,282.545 443.283,282.545 			"/>
		</g>
	</g>
	<g>
		<g>
			<path class="st1" d="M273.606,185.922c-0.696-4.959-4.995-8.697-10.003-8.697h-22.681c-16.11,0-30.7-8.899-38.074-23.224
				l-7.716-14.991c-7.389-14.357-22.011-23.276-38.159-23.276H90.976c-31.687,0-57.466,25.779-57.466,57.466v111.762h26.962v-90.06
				h10.892v90.06h83.942V155.44h19.096l3.112,5.602l14.204,25.563c3.708,6.673,10.755,10.819,18.389,10.819h53.495
				c2.968,0,5.676-1.233,7.622-3.473C273.172,191.711,274.017,188.86,273.606,185.922z"/>
		</g>
	</g>
	<g>
		<g>
			<polygon class="st4" points="100.299,104.841 108.393,123.95 119.165,123.95 127.111,104.841 			"/>
		</g>
	</g>
	<g>
		<g>
			<path class="st4" d="M119.174,123.956h-10.783l-12.526,65.636l17.841,24.289l17.1-24.05
				C127.147,167.219,119.174,123.956,119.174,123.956z"/>
		</g>
	</g>
	<g>
		<g>
			<g>
				<path class="st2" d="M95.367,101.573l10.861,25.645h15.117l10.664-25.645H95.367z M116.984,120.683h-6.427l-5.326-12.574h16.982
					L116.984,120.683z"/>
			</g>
		</g>
	</g>
	<g>
		<g>
			<g>
				<path class="st2" d="M134.032,189.31c-3.624-22.389-11.565-65.513-11.645-65.946l-0.492-2.675h-16.207l-13.3,69.69
					l21.361,29.081l20.498-28.827L134.032,189.31z M113.663,208.303l-14.321-19.497l11.752-61.582h5.359
					c1.753,9.566,7.758,42.501,10.913,61.808L113.663,208.303z"/>
			</g>
		</g>
	</g>
	<g>
		<g>
			<rect x="57.205" y="194.901" class="st2" width="6.535" height="90.06"/>
		</g>
	</g>
	<g>
		<g>
			<path class="st2" d="M287.627,183.955c-1.67-11.909-11.996-20.89-24.022-20.89h-22.682c-10.785,0-20.549-5.956-25.485-15.544
				l-7.716-14.992c-9.828-19.094-29.275-30.956-50.749-30.956H90.976c-39.495,0-71.626,32.131-71.626,71.626v111.762h6.535V173.199
				c0-35.891,29.2-65.091,65.091-65.091h65.997c19.017,0,36.235,10.503,44.939,27.411l7.716,14.991
				c6.06,11.774,18.051,19.089,31.295,19.089h22.682c8.786,0,16.332,6.561,17.551,15.263c0.713,5.082-0.808,10.218-4.176,14.091
				c-3.368,3.873-8.244,6.094-13.375,6.094h-53.496c-10.402,0-20.003-5.648-25.054-14.74l-15.138-27.243h-6.986v121.897h6.535
				V175.707l9.877,17.775c6.203,11.165,17.992,18.101,30.766,18.101h53.496c7.025,0,13.696-3.04,18.306-8.341
				C286.519,197.94,288.603,190.91,287.627,183.955z"/>
		</g>
	</g>
	<g>
		<g>
			<g>
				<path class="st2" d="M369.99,88.559c-23.648,0-42.888,19.239-42.888,42.887s19.24,42.887,42.888,42.887
					s42.885-19.239,42.885-42.887S393.638,88.559,369.99,88.559z M369.99,167.798c-20.044,0-36.352-16.307-36.352-36.352
					c0-20.045,16.308-36.352,36.352-36.352s36.35,16.307,36.35,36.352C406.34,151.49,390.034,167.798,369.99,167.798z"/>
			</g>
		</g>
	</g>
	<g>
		<g>
			<path class="st0" d="M369.993,91.832c-21.893,0-39.625,17.733-39.625,39.603c0,21.894,17.732,39.625,39.625,39.625
				c9.65,0,18.495-3.441,25.357-9.193c8.714-7.254,14.269-18.19,14.269-30.433C409.618,109.564,391.864,91.832,369.993,91.832z"/>
		</g>
	</g>
	<g>
		<g>
			<g>
				<path class="st2" d="M369.992,88.564c-23.65,0-42.892,19.232-42.892,42.871c0,23.651,19.242,42.893,42.892,42.893
					c10.045,0,19.797-3.536,27.449-9.949c9.816-8.172,15.445-20.18,15.445-32.944C412.886,107.796,393.644,88.564,369.992,88.564z
					 M393.25,159.363c-6.486,5.436-14.745,8.429-23.259,8.429c-20.046,0-36.357-16.31-36.357-36.358
					c0-20.036,16.31-36.335,36.357-36.335c20.048,0,36.359,16.3,36.359,36.335C406.351,142.253,401.579,152.43,393.25,159.363z"/>
			</g>
		</g>
	</g>
	<g>
		<g>
			<path class="st4" d="M369.993,91.832v39.603l25.357,30.433c8.714-7.254,14.269-18.19,14.269-30.433
				C409.618,109.564,391.864,91.832,369.993,91.832z"/>
		</g>
	</g>
	<g>
		<g>
			<path class="st3" d="M369.993,131.435v39.625c9.65,0,18.495-3.441,25.357-9.193L369.993,131.435z"/>
		</g>
	</g>
	<g>
		<g>
			<g>
				<path class="st2" d="M372.502,129.343l-5.778,2.092v39.625l3.268,3.268c10.045,0,19.797-3.536,27.458-9.956l0.411-4.596
					L372.502,129.343z M373.26,167.645v-27.184l17.4,20.881C385.522,164.904,379.514,167.08,373.26,167.645z"/>
			</g>
		</g>
	</g>
	<g>
		<g>
			<g>
				<path class="st2" d="M369.992,88.564l-3.268,3.268v39.603l0.757,2.092l25.358,30.433l4.602,0.42
					c9.816-8.172,15.445-20.18,15.445-32.944C412.886,107.796,393.644,88.564,369.992,88.564z M395.676,157.155l-22.416-26.903
					V95.245c18.523,1.657,33.091,17.255,33.091,36.19C406.351,141.158,402.496,150.362,395.676,157.155z"/>
			</g>
		</g>
	</g>
	<g>
		<g>
			<g>
				<path class="st2" d="M369.992,88.564l-3.268,3.268v39.603l0.757,2.092l25.358,30.433l4.602,0.42
					c9.816-8.172,15.445-20.18,15.445-32.944C412.886,107.796,393.644,88.564,369.992,88.564z M395.676,157.155l-22.416-26.903
					V95.245c18.523,1.657,33.091,17.255,33.091,36.19C406.351,141.158,402.496,150.362,395.676,157.155z"/>
			</g>
		</g>
	</g>
</g>
</svg>
